<svg xmlns="http://www.w3.org/2000/svg" xmlns:xlink="http://www.w3.org/1999/xlink" width="189.156" height="45.637" viewBox="0 0 189.156 45.637">
  <defs>
    <clipPath id="clip-path">
      <rect id="Rechteck_5" data-name="Rechteck 5" width="189.156" height="45.637" fill="#294290"/>
    </clipPath>
  </defs>
  <g id="Gruppe_3" data-name="Gruppe 3" clip-path="url(#clip-path)">
    <path id="Pfad_9" data-name="Pfad 9" d="M23.6,13.52v5.571h-.1a14.382,14.382,0,0,0-3.779-3.439A10.242,10.242,0,0,0,14.1,14.2a13.609,13.609,0,0,0-5.475,1.114,13.753,13.753,0,0,0-4.482,3.1,14.8,14.8,0,0,0-3.029,4.7A15.415,15.415,0,0,0,0,29.022a15.425,15.425,0,0,0,1.114,5.912,15.1,15.1,0,0,0,3.029,4.723A13.629,13.629,0,0,0,14.1,43.9a11.641,11.641,0,0,0,3.246-.436,11.4,11.4,0,0,0,2.737-1.186,10.722,10.722,0,0,0,2.2-1.77,17.623,17.623,0,0,0,1.744-2.131h.1v4.7h6.249V6.737A6.783,6.783,0,0,0,23.6,13.52M22.94,32.246a8.256,8.256,0,0,1-4.385,4.408,7.917,7.917,0,0,1-3.2.655,8.034,8.034,0,0,1-3.246-.655A8.378,8.378,0,0,1,9.5,34.885a7.982,7.982,0,0,1-1.744-2.639,8.376,8.376,0,0,1-.629-3.223,8.186,8.186,0,0,1,.629-3.2A8.074,8.074,0,0,1,9.5,23.21a8.4,8.4,0,0,1,2.617-1.769,8.033,8.033,0,0,1,3.246-.653,7.916,7.916,0,0,1,3.2.653,8.317,8.317,0,0,1,4.385,4.385,7.917,7.917,0,0,1,.655,3.2,8.1,8.1,0,0,1-.655,3.223" transform="translate(0 -5.72)" fill="#294290"/>
    <path id="Pfad_10" data-name="Pfad 10" d="M216.369,0a3.69,3.69,0,0,0-2.712,1.114,3.689,3.689,0,0,0-1.114,2.713,3.689,3.689,0,0,0,1.114,2.713,3.859,3.859,0,0,0,5.426,0A3.692,3.692,0,0,0,220.2,3.827a3.692,3.692,0,0,0-1.114-2.713A3.694,3.694,0,0,0,216.369,0" transform="translate(-180.469 0)" fill="#294290"/>
    <path id="Pfad_11" data-name="Pfad 11" d="M222.211,61.639h-6.783V89.69h0a6.783,6.783,0,0,0,6.783-6.783V61.639h0" transform="translate(-182.919 -52.337)" fill="#294290"/>
    <path id="Pfad_12" data-name="Pfad 12" d="M321.219,65.6c-.065-.168-.136-.332-.208-.5a14.634,14.634,0,0,0-8.14-7.8,16.151,16.151,0,0,0-6.007-1.114A15.968,15.968,0,0,0,300.88,57.3a14.814,14.814,0,0,0-4.846,3.1l-.012.012a1.452,1.452,0,0,1-2.178-.186q-.281-.378-.593-.723a9.978,9.978,0,0,0-3.416-2.446,10.827,10.827,0,0,0-4.408-.872,9.847,9.847,0,0,0-5.4,1.4,9.488,9.488,0,0,0-3.318,3.439h-.1V57.009a6.25,6.25,0,0,0-6.249,6.25v21.8h6.783V68.976a6.007,6.007,0,0,1,.484-2.422,6.32,6.32,0,0,1,3.294-3.294,6.006,6.006,0,0,1,2.422-.484,5.884,5.884,0,0,1,2.374.484,6.266,6.266,0,0,1,1.962,1.332,6.331,6.331,0,0,1,1.334,1.962,6.032,6.032,0,0,1,.484,2.422V85.061h6.782v-.327a1.416,1.416,0,0,1,2.176-1.2,15.051,15.051,0,0,0,2.425,1.233,16,16,0,0,0,5.983,1.114,16.181,16.181,0,0,0,6.007-1.114,14.587,14.587,0,0,0,4.868-3.125,15.177,15.177,0,0,0,3.272-4.723c.073-.164.143-.329.208-.5a15.13,15.13,0,0,0,0-10.829m-6.724,8.636a8.256,8.256,0,0,1-4.385,4.408,8.035,8.035,0,0,1-3.246.655,7.754,7.754,0,0,1-3.173-.655,8.458,8.458,0,0,1-2.591-1.769,8.308,8.308,0,0,1-1.769-2.639,8.1,8.1,0,0,1-.653-3.223,7.914,7.914,0,0,1,.653-3.2,8.388,8.388,0,0,1,4.36-4.385,7.752,7.752,0,0,1,3.173-.653,8.034,8.034,0,0,1,3.246.653,8.316,8.316,0,0,1,4.385,4.385,7.915,7.915,0,0,1,.653,3.2,8.1,8.1,0,0,1-.653,3.223" transform="translate(-229.562 -47.708)" fill="#294290"/>
    <path id="Pfad_13" data-name="Pfad 13" d="M636.653,65.149a15.131,15.131,0,0,0-3.027-4.723,13.629,13.629,0,0,0-9.957-4.239,11.627,11.627,0,0,0-3.246.435,11.317,11.317,0,0,0-2.737,1.188,10.683,10.683,0,0,0-2.2,1.769,17.781,17.781,0,0,0-1.744,2.132h-.1v-4.7h-6.25V93.345h0a6.782,6.782,0,0,0,6.782-6.783V80.991h.1a14.346,14.346,0,0,0,3.78,3.441,10.239,10.239,0,0,0,5.62,1.453,13.64,13.64,0,0,0,5.475-1.114,13.808,13.808,0,0,0,4.482-3.1,14.846,14.846,0,0,0,3.027-4.7,16.242,16.242,0,0,0,0-11.822m-6.637,9.109a8.1,8.1,0,0,1-1.744,2.615,8.415,8.415,0,0,1-2.617,1.769,8.039,8.039,0,0,1-3.246.655,7.92,7.92,0,0,1-3.2-.655,8.311,8.311,0,0,1-4.384-4.384,8.132,8.132,0,0,1,0-6.4,8.7,8.7,0,0,1,1.767-2.641,8.254,8.254,0,0,1,2.617-1.793,7.919,7.919,0,0,1,3.2-.653,8.038,8.038,0,0,1,3.246.653,8.254,8.254,0,0,1,2.617,1.793,8.394,8.394,0,0,1,1.744,2.641,8.437,8.437,0,0,1,0,6.4" transform="translate(-515.733 -47.708)" fill="#294290"/>
    <path id="Pfad_14" data-name="Pfad 14" d="M824.594,6.741h0a6.783,6.783,0,0,0-6.783,6.783V43.077h6.783V6.741h0" transform="translate(-694.401 -5.724)" fill="#294290"/>
    <path id="Pfad_15" data-name="Pfad 15" d="M898.265,57.009a4.07,4.07,0,0,0-4.07,4.07h-.1a14.84,14.84,0,0,0-1.672-1.865,11.427,11.427,0,0,0-2.107-1.574,10.767,10.767,0,0,0-2.568-1.067,11.452,11.452,0,0,0-3.051-.386,13.61,13.61,0,0,0-5.475,1.114,13.756,13.756,0,0,0-4.482,3.1,14.825,14.825,0,0,0-3.029,4.7,16.243,16.243,0,0,0,0,11.822,15.126,15.126,0,0,0,3.029,4.723,13.629,13.629,0,0,0,9.957,4.239,10.8,10.8,0,0,0,3.051-.412,11.466,11.466,0,0,0,2.568-1.09,11.3,11.3,0,0,0,2.107-1.575,14.63,14.63,0,0,0,1.672-1.865h.1v4.118h6.733V57.009Zm-4.7,17.224a8.005,8.005,0,0,1-1.744,2.639,8.391,8.391,0,0,1-2.615,1.769,8.045,8.045,0,0,1-3.246.655,7.914,7.914,0,0,1-3.2-.655,8.257,8.257,0,0,1-4.385-4.408,8.1,8.1,0,0,1-.653-3.223,7.915,7.915,0,0,1,.653-3.2,8.317,8.317,0,0,1,4.385-4.385,7.913,7.913,0,0,1,3.2-.653,8.043,8.043,0,0,1,3.246.653A8.416,8.416,0,0,1,891.82,65.2a8.1,8.1,0,0,1,1.744,2.617,8.185,8.185,0,0,1,.631,3.2,8.375,8.375,0,0,1-.631,3.223" transform="translate(-739.224 -47.708)" fill="#294290"/>
    <path id="Pfad_16" data-name="Pfad 16" d="M1106.852,63.281a11.28,11.28,0,0,0-2.229-3.779,9.97,9.97,0,0,0-3.416-2.446,10.847,10.847,0,0,0-4.409-.872,9.851,9.851,0,0,0-5.4,1.4,9.494,9.494,0,0,0-3.319,3.439h-.1V57.007h0a6.249,6.249,0,0,0-6.249,6.249v21.8h6.783V68.974a6,6,0,0,1,.484-2.422,6.313,6.313,0,0,1,3.294-3.295,6.024,6.024,0,0,1,2.422-.485,5.907,5.907,0,0,1,2.374.485,6.318,6.318,0,0,1,3.295,3.295,6.014,6.014,0,0,1,.485,2.422V85.058h6.782V68.1a14.049,14.049,0,0,0-.8-4.821" transform="translate(-918.495 -47.706)" fill="#294290"/>
  </g>
</svg>
